# Blender v2.90.1 OBJ File: ''
# www.blender.org
mtllib arc.mtl
o Cube
v 5.717415 0.209931 5.327080
v 5.717415 0.032027 5.327080
v 5.498227 0.209931 5.221767
v 5.498227 0.032027 5.221767
v -5.717415 0.209931 5.327080
v -5.717415 -0.002109 5.327080
v -5.470259 0.206467 5.204809
v -5.470259 -0.005573 5.204809
v -0.724681 -0.667042 -0.629075
v -0.723694 0.667293 0.788482
v -0.723694 -0.667293 0.788482
v -0.724681 0.667042 -0.629075
v -4.042823 -0.002109 1.284256
v -3.917799 0.206467 1.456838
v -3.917799 -0.005573 1.456838
v -4.042823 0.209931 1.284256
v 3.945766 0.032027 1.473797
v 4.042823 0.209931 1.284256
v 4.042823 0.032027 1.284256
v 3.945766 0.209931 1.473797
v -2.198215 -0.005573 0.307850
v -2.187960 0.209931 0.044877
v -2.187960 -0.002109 0.044877
v -2.198215 0.206467 0.307850
v 2.187960 0.032027 0.044877
v 2.226183 0.209931 0.324808
v 2.226183 0.032027 0.324808
v 2.187960 0.209931 0.044877
v 5.094755 0.032027 3.193380
v 5.282202 0.209931 3.139119
v 5.282202 0.032027 3.139119
v 5.094755 0.209931 3.193380
v -5.282202 -0.002109 3.139119
v -5.066788 0.206467 3.176422
v -5.066788 -0.005573 3.176422
v -5.282202 0.209931 3.139119
v -3.176425 -0.002109 0.573223
v -3.114590 0.206467 0.797662
v -3.114590 -0.005573 0.797662
v -3.176425 0.209931 0.573223
v -4.576976 -0.005573 2.260048
v -4.753857 0.209931 2.150654
v -4.753857 -0.002109 2.150654
v -4.576976 0.206467 2.260048
v -5.607556 -0.002109 4.211668
v -5.368413 0.206467 4.170747
v -5.368413 -0.005573 4.170747
v -5.607556 0.209931 4.211668
v 0.731503 -0.667361 -0.628335
v 0.732415 0.667122 0.788299
v 0.732415 -0.667122 0.788299
v 0.731503 0.667361 -0.628335
v 3.142557 0.032027 0.814620
v 3.176425 0.209931 0.573223
v 3.176425 0.032027 0.573223
v 3.142557 0.209931 0.814620
v 4.753857 0.032027 2.150654
v 4.604943 0.209931 2.277006
v 4.604943 0.032027 2.277006
v 4.753857 0.209931 2.150654
v 5.396380 0.032027 4.187705
v 5.607556 0.209931 4.211668
v 5.607556 0.032027 4.211668
v 5.396380 0.209931 4.187705
v -5.689884 -0.002109 4.766675
v -5.444736 0.206467 4.685277
v -5.465109 -0.011972 4.685277
v -5.689884 0.209931 4.766675
v -5.242024 -0.005573 3.666175
v -5.471225 0.209931 3.667401
v -5.471225 -0.002109 3.667401
v -5.242024 0.206467 3.666175
v -5.042310 -0.002109 2.631909
v -4.844391 0.206467 2.706204
v -4.844391 -0.005573 2.706204
v -5.042310 0.209931 2.631909
v -4.267117 -0.005573 1.842251
v -4.419621 0.209931 1.699990
v -4.419621 -0.002109 1.699990
v -4.267117 0.206467 1.842251
v -3.627090 -0.002109 0.907458
v -3.532386 0.206467 1.107521
v -3.532386 -0.005573 1.107521
v -3.627090 0.209931 0.907458
v -2.668434 -0.005573 0.530247
v -2.695171 0.209931 0.284770
v -2.695171 -0.002109 0.284770
v -2.668434 0.206467 0.530247
v -1.129463 -0.024044 -0.064861
v -1.136413 0.209931 0.174858
v -1.136413 -0.024044 0.174858
v -1.129463 0.209931 -0.064861
v 1.079926 0.003404 0.170784
v 1.084386 0.209931 -0.064227
v 1.084386 0.003404 -0.064227
v 1.079926 0.209931 0.170784
v 2.695171 0.032027 0.284770
v 2.696402 0.209931 0.547205
v 2.696402 0.032027 0.547205
v 2.695171 0.209931 0.284770
v 3.560354 0.032027 1.124479
v 3.627090 0.209931 0.907458
v 3.627090 0.032027 0.907458
v 3.560354 0.209931 1.124479
v 4.419621 0.032027 1.699990
v 4.295084 0.209931 1.859210
v 4.295084 0.032027 1.859210
v 4.419621 0.209931 1.699990
v 4.872359 0.032027 2.723162
v 5.042310 0.209931 2.631909
v 5.042310 0.032027 2.631909
v 4.872359 0.209931 2.723162
v 5.471225 0.032027 3.667401
v 5.269992 0.209931 3.683133
v 5.269992 0.032027 3.683133
v 5.471225 0.209931 3.667401
v 5.472703 0.032027 4.702235
v 5.689884 0.209931 4.766675
v 5.689884 0.032027 4.766675
v 5.472703 0.209931 4.702235
vt 0.867188 0.500000
vt 0.875000 0.750000
vt 0.867188 0.750000
vt 0.625000 0.992188
vt 0.375000 1.000000
vt 0.375000 0.992188
vt 0.625000 0.000000
vt 0.375000 0.250000
vt 0.375000 0.000000
vt 0.367188 0.500000
vt 0.375000 0.750000
vt 0.367188 0.750000
vt 0.625000 0.500000
vt 0.375000 0.500000
vt 0.625000 0.492188
vt 0.375000 0.492188
vt 0.625000 0.867188
vt 0.375000 0.875000
vt 0.375000 0.867188
vt 0.742188 0.500000
vt 0.750000 0.750000
vt 0.742188 0.750000
vt 0.179688 0.500000
vt 0.187500 0.750000
vt 0.179688 0.750000
vt 0.625000 0.304688
vt 0.375000 0.312500
vt 0.375000 0.304688
vt 0.625000 0.929688
vt 0.375000 0.937500
vt 0.375000 0.929688
vt 0.812500 0.500000
vt 0.804688 0.750000
vt 0.804688 0.500000
vt 0.679688 0.500000
vt 0.687500 0.750000
vt 0.679688 0.750000
vt 0.625000 0.804688
vt 0.375000 0.812500
vt 0.375000 0.804688
vt 0.625000 0.429688
vt 0.375000 0.437500
vt 0.375000 0.429688
vt 0.312500 0.500000
vt 0.304688 0.750000
vt 0.304688 0.500000
vt 0.781250 0.500000
vt 0.773438 0.750000
vt 0.773438 0.500000
vt 0.625000 0.898438
vt 0.375000 0.906250
vt 0.375000 0.898438
vt 0.210938 0.500000
vt 0.218750 0.750000
vt 0.210938 0.750000
vt 0.625000 0.335938
vt 0.375000 0.343750
vt 0.375000 0.335938
vt 0.281250 0.500000
vt 0.273438 0.750000
vt 0.273438 0.500000
vt 0.625000 0.398438
vt 0.375000 0.406250
vt 0.375000 0.398438
vt 0.710938 0.500000
vt 0.718750 0.750000
vt 0.710938 0.750000
vt 0.625000 0.835938
vt 0.375000 0.843750
vt 0.375000 0.835938
vt 0.625000 0.773438
vt 0.375000 0.781250
vt 0.375000 0.773438
vt 0.656250 0.500000
vt 0.648438 0.750000
vt 0.648438 0.500000
vt 0.625000 0.460938
vt 0.375000 0.468750
vt 0.375000 0.460938
vt 0.335938 0.500000
vt 0.343750 0.750000
vt 0.335938 0.750000
vt 0.625000 0.273438
vt 0.375000 0.281250
vt 0.375000 0.273438
vt 0.156250 0.500000
vt 0.148438 0.750000
vt 0.148438 0.500000
vt 0.625000 0.960938
vt 0.375000 0.968750
vt 0.375000 0.960938
vt 0.835938 0.500000
vt 0.843750 0.750000
vt 0.835938 0.750000
vt 0.625000 0.320312
vt 0.375000 0.328125
vt 0.375000 0.320312
vt 0.195312 0.500000
vt 0.203125 0.750000
vt 0.195312 0.750000
vt 0.796875 0.500000
vt 0.789062 0.750000
vt 0.789062 0.500000
vt 0.625000 0.914062
vt 0.375000 0.921875
vt 0.375000 0.914062
vt 0.828125 0.500000
vt 0.820312 0.750000
vt 0.820312 0.500000
vt 0.625000 0.945312
vt 0.375000 0.953125
vt 0.375000 0.945312
vt 0.625000 0.289062
vt 0.375000 0.296875
vt 0.375000 0.289062
vt 0.171875 0.500000
vt 0.164062 0.750000
vt 0.164062 0.500000
vt 0.140625 0.500000
vt 0.132812 0.750000
vt 0.132812 0.500000
vt 0.625000 0.257812
vt 0.375000 0.265625
vt 0.375000 0.257812
vt 0.625000 0.976562
vt 0.375000 0.984375
vt 0.375000 0.976562
vt 0.851562 0.500000
vt 0.859375 0.750000
vt 0.851562 0.750000
vt 0.234375 0.500000
vt 0.226562 0.750000
vt 0.226562 0.500000
vt 0.375000 0.351562
vt 0.625000 0.359375
vt 0.375000 0.359375
vt 0.734375 0.500000
vt 0.726562 0.750000
vt 0.726562 0.500000
vt 0.375000 0.851562
vt 0.625000 0.859375
vt 0.375000 0.859375
vt 0.625000 0.820312
vt 0.375000 0.828125
vt 0.375000 0.820312
vt 0.695312 0.500000
vt 0.703125 0.750000
vt 0.695312 0.750000
vt 0.296875 0.500000
vt 0.289062 0.750000
vt 0.289062 0.500000
vt 0.625000 0.414062
vt 0.375000 0.421875
vt 0.375000 0.414062
vt 0.328125 0.500000
vt 0.320312 0.750000
vt 0.320312 0.500000
vt 0.625000 0.445312
vt 0.375000 0.453125
vt 0.375000 0.445312
vt 0.625000 0.789062
vt 0.375000 0.796875
vt 0.375000 0.789062
vt 0.664062 0.500000
vt 0.671875 0.750000
vt 0.664062 0.750000
vt 0.640625 0.500000
vt 0.632812 0.750000
vt 0.632812 0.500000
vt 0.625000 0.757812
vt 0.375000 0.765625
vt 0.375000 0.757812
vt 0.625000 0.476562
vt 0.375000 0.484375
vt 0.375000 0.476562
vt 0.351562 0.500000
vt 0.359375 0.750000
vt 0.351562 0.750000
vt 0.625000 0.250000
vt 0.125000 0.750000
vt 0.125000 0.500000
vt 0.859375 0.500000
vt 0.843750 0.500000
vt 0.625000 0.968750
vt 0.140625 0.750000
vt 0.625000 0.265625
vt 0.156250 0.750000
vt 0.625000 0.281250
vt 0.828125 0.750000
vt 0.625000 0.953125
vt 0.625000 0.937500
vt 0.812500 0.750000
vt 0.625000 0.296875
vt 0.171875 0.750000
vt 0.187500 0.500000
vt 0.625000 0.312500
vt 0.796875 0.750000
vt 0.625000 0.921875
vt 0.625000 0.906250
vt 0.781250 0.750000
vt 0.625000 0.328125
vt 0.203125 0.500000
vt 0.625000 0.351562
vt 0.218750 0.500000
vt 0.625000 0.890625
vt 0.375000 0.890625
vt 0.765625 0.500000
vt 0.765625 0.750000
vt 0.257812 0.500000
vt 0.250000 0.750000
vt 0.250000 0.500000
vt 0.625000 0.375000
vt 0.375000 0.382812
vt 0.375000 0.375000
vt 0.625000 0.851562
vt 0.718750 0.500000
vt 0.625000 0.390625
vt 0.375000 0.390625
vt 0.265625 0.500000
vt 0.265625 0.750000
vt 0.625000 0.406250
vt 0.281250 0.750000
vt 0.625000 0.828125
vt 0.703125 0.500000
vt 0.687500 0.500000
vt 0.625000 0.812500
vt 0.296875 0.750000
vt 0.625000 0.421875
vt 0.625000 0.437500
vt 0.312500 0.750000
vt 0.625000 0.796875
vt 0.671875 0.500000
vt 0.656250 0.750000
vt 0.625000 0.781250
vt 0.328125 0.750000
vt 0.625000 0.453125
vt 0.343750 0.500000
vt 0.625000 0.468750
vt 0.640625 0.750000
vt 0.625000 0.765625
vt 0.625000 0.750000
vt 0.625000 0.484375
vt 0.359375 0.500000
vt 0.875000 0.500000
vt 0.625000 1.000000
vt 0.625000 0.875000
vt 0.750000 0.500000
vt 0.625000 0.343750
vt 0.625000 0.843750
vt 0.625000 0.984375
vt 0.234375 0.750000
vt 0.734375 0.750000
vt 0.257812 0.750000
vt 0.625000 0.382812
vn 0.0144 0.9999 0.0007
vn 0.9956 -0.0929 0.0110
vn 0.4434 0.0000 0.8963
vn 0.0000 -1.0000 0.0000
vn -0.4331 0.0000 0.9014
vn 0.9988 0.0000 -0.0491
vn 0.0001 0.0000 1.0000
vn 0.0001 1.0000 0.0002
vn -0.0123 -0.9999 -0.0112
vn -0.7410 0.0000 -0.6716
vn 0.6716 0.0000 0.7410
vn 0.0110 0.9999 0.0121
vn 0.0000 1.0000 0.0000
vn -0.7410 0.0000 0.6716
vn 0.6716 0.0000 -0.7410
vn 0.1243 0.0000 0.9922
vn -0.0063 -0.9999 -0.0134
vn -0.4276 0.0000 -0.9040
vn 0.0259 -0.9997 0.0005
vn 0.0984 0.0000 -0.9951
vn -0.4276 0.0000 0.9040
vn -0.9415 0.0000 0.3369
vn 0.9040 0.0000 -0.4276
vn -0.9415 0.0000 -0.3369
vn -0.0151 -0.9999 -0.0054
vn 0.9040 0.0000 0.4276
vn 0.0149 0.9999 0.0070
vn -0.5957 0.0000 -0.8032
vn -0.0095 -0.9999 -0.0128
vn 0.0079 0.9999 0.0132
vn 0.5141 0.0000 0.8577
vn 0.0134 0.9999 0.0100
vn 0.8032 0.0000 0.5957
vn -0.8577 0.0000 -0.5141
vn -0.0143 -0.9999 -0.0086
vn -0.0463 -0.9989 -0.0069
vn -0.9892 0.0000 -0.1467
vn 0.9700 0.0000 0.2430
vn 0.0151 0.9999 0.0038
vn -0.8557 -0.5169 -0.0248
vn -0.8125 0.0000 -0.5829
vn 0.7827 0.6222 0.0149
vn 0.8715 0.0000 0.4904
vn -0.5957 0.0000 0.8032
vn 0.5141 0.0000 -0.8577
vn 0.8032 0.0000 -0.5957
vn -0.8577 0.0000 0.5141
vn -0.9892 0.0000 0.1467
vn 0.9700 0.0000 -0.2430
vn -0.9988 0.0000 -0.0491
vn -0.0144 -0.9999 -0.0007
vn 0.9789 -0.0913 0.1828
vn 0.0149 0.9999 0.0022
vn 0.0151 0.9999 0.0054
vn 0.9415 0.0000 0.3369
vn -0.0151 -0.9999 -0.0038
vn -0.9700 0.0000 -0.2430
vn -0.0149 -0.9999 -0.0070
vn -0.9040 0.0000 -0.4276
vn 0.0143 0.9999 0.0086
vn 0.8577 0.0000 0.5141
vn 0.7410 0.0000 0.6716
vn 0.0123 0.9999 0.0112
vn -0.8032 0.0000 -0.5957
vn -0.0134 -0.9999 -0.0100
vn -0.0110 -0.9999 -0.0121
vn -0.6716 0.0000 -0.7410
vn 0.0095 0.9999 0.0128
vn 0.5957 0.0000 0.8032
vn 0.4276 0.0000 0.9040
vn 0.0063 0.9999 0.0134
vn -0.5141 0.0000 -0.8577
vn -0.0079 -0.9999 -0.0132
vn -0.1031 0.0000 -0.9947
vn -0.0191 -0.9997 -0.0139
vn -0.8298 0.0000 0.5581
vn -0.7427 0.6697 0.0004
vn -0.0002 -1.0000 -0.0002
vn 0.0005 0.0000 -1.0000
vn -0.1332 0.0000 0.9911
vn 0.8478 0.0000 -0.5303
vn 0.8877 -0.4605 -0.0005
vn 0.4276 0.0000 -0.9040
vn -0.5141 0.0000 0.8577
vn -0.6716 0.0000 0.7410
vn 0.5957 0.0000 -0.8032
vn 0.7410 0.0000 -0.6716
vn -0.8032 0.0000 0.5957
vn -0.9040 0.0000 0.4276
vn 0.8577 0.0000 -0.5141
vn 0.9415 0.0000 -0.3369
vn -0.9700 0.0000 0.2430
vn -0.9988 0.0000 0.0491
vn 0.9892 0.0000 -0.1467
vn 0.9988 0.0000 0.0491
vn -0.0002 1.0000 -0.0002
vn -0.0016 0.9999 0.0131
vn 0.0254 -0.9997 -0.0035
vn -0.0172 -0.9997 -0.0157
vn -0.8419 -0.5397 0.0005
vn 0.7959 0.6055 -0.0004
vn -0.0395 -0.9991 0.0119
vn 0.9892 0.0000 0.1467
vn -0.0208 -0.9998 -0.0006
vn -0.7619 0.6474 -0.0221
vn 0.0001 -1.0000 0.0002
vn 0.8790 -0.4765 0.0167
usemtl Material
s off
f 68/1/1 7/2/1 66/3/1
f 66/4/2 8/5/2 67/6/2
f 7/7/3 6/8/3 8/9/3
f 119/10/4 4/11/4 117/12/4
f 1/13/5 4/11/5 2/14/5
f 118/15/6 2/14/6 119/16/6
f 50/17/7 11/18/7 51/19/7
f 52/20/8 10/21/8 50/22/8
f 79/23/9 15/24/9 77/25/9
f 78/26/10 13/27/10 79/28/10
f 82/29/11 15/30/11 83/31/11
f 16/32/12 82/33/12 84/34/12
f 108/35/13 20/36/13 106/37/13
f 106/38/14 17/39/14 107/40/14
f 102/41/15 19/42/15 103/43/15
f 19/44/4 101/45/4 103/46/4
f 22/47/13 90/48/13 92/49/13
f 90/50/16 21/51/16 91/52/16
f 87/53/17 21/54/17 85/55/17
f 86/56/18 23/57/18 87/58/18
f 25/59/19 93/60/19 95/61/19
f 94/62/20 25/63/20 95/64/20
f 100/65/13 26/66/13 98/67/13
f 98/68/21 27/69/21 99/70/21
f 114/71/22 29/72/22 115/73/22
f 30/74/13 114/75/13 116/76/13
f 110/77/23 31/78/23 111/79/23
f 111/80/4 29/81/4 109/82/4
f 70/83/24 33/84/24 71/85/24
f 33/86/25 69/87/25 71/88/25
f 74/89/26 35/90/26 75/91/26
f 76/92/27 34/93/27 74/94/27
f 84/95/28 37/96/28 81/97/28
f 81/98/29 39/99/29 83/100/29
f 40/101/30 88/102/30 86/103/30
f 88/104/31 39/105/31 85/106/31
f 42/107/32 80/108/32 78/109/32
f 80/110/33 41/111/33 77/112/33
f 76/113/34 43/114/34 73/115/34
f 43/116/35 75/117/35 73/118/35
f 45/119/36 67/120/36 65/121/36
f 68/122/37 45/123/37 65/124/37
f 72/125/38 47/126/38 69/127/38
f 70/128/39 46/129/39 72/130/39
f 9/131/40 91/132/40 89/133/40
f 89/134/41 12/135/41 9/136/41
f 52/137/42 96/138/42 94/139/42
f 93/140/43 50/141/43 51/142/43
f 104/143/44 53/144/44 101/145/44
f 102/146/13 56/147/13 104/148/13
f 55/149/4 99/150/4 97/151/4
f 100/152/45 55/153/45 97/154/45
f 57/155/4 107/156/4 105/157/4
f 108/158/46 57/159/46 105/160/46
f 112/161/47 59/162/47 109/163/47
f 110/164/13 58/165/13 112/166/13
f 62/167/13 120/168/13 118/169/13
f 120/170/48 61/171/48 117/172/48
f 116/173/49 63/174/49 113/175/49
f 113/176/4 61/177/4 115/178/4
f 5/179/50 65/124/50 6/8/50
f 65/121/51 8/180/51 6/181/51
f 47/126/52 66/4/52 67/6/52
f 48/182/53 66/3/53 46/129/53
f 36/183/54 72/130/54 34/93/54
f 34/184/55 69/127/55 35/90/55
f 71/88/56 47/185/56 45/119/56
f 48/186/57 71/85/57 45/123/57
f 73/118/58 35/187/58 33/86/58
f 36/188/59 73/115/59 33/84/59
f 42/107/60 74/94/60 44/189/60
f 44/190/61 75/91/61 41/111/61
f 14/191/62 77/112/62 15/30/62
f 78/109/63 14/192/63 16/32/63
f 42/193/64 79/28/64 43/114/64
f 43/116/65 77/25/65 41/194/65
f 13/195/66 83/100/66 15/24/66
f 16/196/67 81/97/67 13/27/67
f 84/34/68 38/197/68 40/101/68
f 38/198/69 83/31/69 39/105/69
f 24/199/70 85/106/70 21/51/70
f 86/103/71 24/200/71 22/47/71
f 40/201/72 87/58/72 37/96/72
f 37/202/73 85/55/73 39/99/73
f 23/57/74 92/203/74 89/134/74
f 23/204/75 91/132/75 21/54/75
f 10/205/76 91/52/76 11/206/76
f 12/207/77 90/48/77 10/208/77
f 49/209/78 11/210/78 9/211/78
f 12/212/79 49/213/79 9/214/79
f 27/69/80 96/215/80 93/140/80
f 28/216/13 96/138/13 26/66/13
f 52/217/81 95/64/81 49/218/81
f 49/219/82 93/60/82 51/220/82
f 28/221/83 97/154/83 25/63/83
f 97/151/4 27/222/4 25/59/4
f 56/223/84 99/70/84 53/144/84
f 54/224/13 98/67/13 56/147/13
f 18/225/13 104/148/13 20/36/13
f 20/226/85 101/145/85 17/39/85
f 103/46/4 53/227/4 55/149/4
f 54/228/86 103/43/86 55/153/86
f 18/229/87 105/160/87 19/42/87
f 105/157/4 17/230/4 19/44/4
f 58/231/88 107/40/88 59/162/88
f 60/232/13 106/37/13 58/165/13
f 110/164/13 32/233/13 30/74/13
f 32/234/89 109/163/89 29/72/89
f 111/80/4 59/235/4 57/155/4
f 60/236/90 111/79/90 57/159/90
f 31/237/4 115/178/4 29/81/4
f 30/238/91 113/175/91 31/78/91
f 116/76/13 64/239/13 62/167/13
f 64/240/92 115/73/92 61/171/92
f 3/241/93 117/172/93 4/11/93
f 118/169/13 3/241/13 1/13/13
f 62/242/94 119/16/94 63/174/94
f 63/243/4 117/12/4 61/177/4
f 68/1/1 5/244/1 7/2/1
f 66/4/95 7/245/95 8/5/95
f 7/7/3 5/179/3 6/8/3
f 119/10/4 2/14/4 4/11/4
f 1/13/5 3/241/5 4/11/5
f 118/15/6 1/13/6 2/14/6
f 50/17/7 10/246/7 11/18/7
f 52/20/96 12/247/96 10/21/96
f 79/23/9 13/195/9 15/24/9
f 78/26/10 16/196/10 13/27/10
f 82/29/11 14/191/11 15/30/11
f 16/32/12 14/192/12 82/33/12
f 108/35/13 18/225/13 20/36/13
f 106/38/14 20/226/14 17/39/14
f 102/41/15 18/229/15 19/42/15
f 19/44/4 17/230/4 101/45/4
f 22/47/97 24/200/97 90/48/97
f 90/50/16 24/199/16 21/51/16
f 87/53/17 23/204/17 21/54/17
f 86/56/18 22/248/18 23/57/18
f 25/59/98 27/222/98 93/60/98
f 94/62/20 28/221/20 25/63/20
f 100/65/13 28/216/13 26/66/13
f 98/68/21 26/249/21 27/69/21
f 114/71/22 32/234/22 29/72/22
f 30/74/13 32/233/13 114/75/13
f 110/77/23 30/238/23 31/78/23
f 111/80/4 31/237/4 29/81/4
f 70/83/24 36/188/24 33/84/24
f 33/86/25 35/187/25 69/87/25
f 74/89/26 34/184/26 35/90/26
f 76/92/27 36/183/27 34/93/27
f 84/95/28 40/201/28 37/96/28
f 81/98/29 37/202/29 39/99/29
f 40/101/30 38/197/30 88/102/30
f 88/104/31 38/198/31 39/105/31
f 42/107/32 44/189/32 80/108/32
f 80/110/33 44/190/33 41/111/33
f 76/113/34 42/193/34 43/114/34
f 43/116/35 41/194/35 75/117/35
f 45/119/99 47/185/99 67/120/99
f 68/122/37 48/186/37 45/123/37
f 72/125/38 46/250/38 47/126/38
f 70/128/39 48/182/39 46/129/39
f 9/131/100 11/251/100 91/132/100
f 89/134/41 92/203/41 12/135/41
f 52/137/101 50/252/101 96/138/101
f 93/140/43 96/215/43 50/141/43
f 104/143/44 56/223/44 53/144/44
f 102/146/13 54/224/13 56/147/13
f 55/149/4 53/227/4 99/150/4
f 100/152/45 54/228/45 55/153/45
f 57/155/4 59/235/4 107/156/4
f 108/158/46 60/236/46 57/159/46
f 112/161/47 58/231/47 59/162/47
f 110/164/13 60/232/13 58/165/13
f 62/167/13 64/239/13 120/168/13
f 120/170/48 64/240/48 61/171/48
f 116/173/49 62/242/49 63/174/49
f 113/176/4 63/243/4 61/177/4
f 5/179/50 68/122/50 65/124/50
f 65/121/102 67/120/102 8/180/102
f 47/126/103 46/250/103 66/4/103
f 48/182/53 68/1/53 66/3/53
f 36/183/54 70/128/54 72/130/54
f 34/184/55 72/125/55 69/127/55
f 71/88/56 69/87/56 47/185/56
f 48/186/57 70/83/57 71/85/57
f 73/118/58 75/117/58 35/187/58
f 36/188/59 76/113/59 73/115/59
f 42/107/60 76/92/60 74/94/60
f 44/190/61 74/89/61 75/91/61
f 14/191/62 80/110/62 77/112/62
f 78/109/63 80/108/63 14/192/63
f 42/193/64 78/26/64 79/28/64
f 43/116/65 79/23/65 77/25/65
f 13/195/66 81/98/66 83/100/66
f 16/196/67 84/95/67 81/97/67
f 84/34/68 82/33/68 38/197/68
f 38/198/69 82/29/69 83/31/69
f 24/199/70 88/104/70 85/106/70
f 86/103/71 88/102/71 24/200/71
f 40/201/72 86/56/72 87/58/72
f 37/202/73 87/53/73 85/55/73
f 23/57/74 22/248/74 92/203/74
f 23/204/104 89/133/104 91/132/104
f 10/205/76 90/50/76 91/52/76
f 12/207/105 92/49/105 90/48/105
f 49/209/106 51/253/106 11/210/106
f 12/212/79 52/254/79 49/213/79
f 27/69/80 26/249/80 96/215/80
f 28/216/13 94/139/13 96/138/13
f 52/217/81 94/62/81 95/64/81
f 49/219/107 95/61/107 93/60/107
f 28/221/83 100/152/83 97/154/83
f 97/151/4 99/150/4 27/222/4
f 56/223/84 98/68/84 99/70/84
f 54/224/13 100/65/13 98/67/13
f 18/225/13 102/146/13 104/148/13
f 20/226/85 104/143/85 101/145/85
f 103/46/4 101/45/4 53/227/4
f 54/228/86 102/41/86 103/43/86
f 18/229/87 108/158/87 105/160/87
f 105/157/4 107/156/4 17/230/4
f 58/231/88 106/38/88 107/40/88
f 60/232/13 108/35/13 106/37/13
f 110/164/13 112/166/13 32/233/13
f 32/234/89 112/161/89 109/163/89
f 111/80/4 109/82/4 59/235/4
f 60/236/90 110/77/90 111/79/90
f 31/237/4 113/176/4 115/178/4
f 30/238/91 116/173/91 113/175/91
f 116/76/13 114/75/13 64/239/13
f 64/240/92 114/71/92 115/73/92
f 3/241/93 120/170/93 117/172/93
f 118/169/13 120/168/13 3/241/13
f 62/242/94 118/15/94 119/16/94
f 63/243/4 119/10/4 117/12/4
