# Blender v2.90.1 OBJ File: 'scale.blend'
# www.blender.org
mtllib scale.mtl
o Cube
v 0.347240 -6.073959 0.347240
v 1.000000 1.000000 1.000000
v 0.347240 -6.073959 -0.347241
v 1.000000 1.000000 -1.000000
v -0.347240 -6.073959 0.347240
v -1.000000 1.000000 1.000000
v -0.347240 -6.073959 -0.347241
v -1.000000 1.000000 -1.000000
v 1.000000 -1.000000 -1.000000
v -1.000000 -1.000000 -1.000000
v 1.000000 -1.000000 1.000000
v -1.000000 -1.000000 1.000000
v 0.347240 -1.000000 -0.347240
v -0.347240 -1.000000 -0.347240
v 0.347240 -1.000000 0.347240
v -0.347240 -1.000000 0.347240
vt 0.706595 0.581595
vt 0.793405 0.581595
vt 0.793405 0.668405
vt 0.706595 0.668405
vt 0.375000 0.750000
vt 0.625000 0.750000
vt 0.625000 1.000000
vt 0.375000 1.000000
vt 0.375000 0.000000
vt 0.625000 0.000000
vt 0.625000 0.250000
vt 0.375000 0.250000
vt 0.125000 0.500000
vt 0.375000 0.500000
vt 0.125000 0.750000
vt 0.625000 0.500000
vt 0.706595 0.668405
vt 0.793405 0.668405
vt 0.875000 0.750000
vt 0.706595 0.581595
vt 0.793405 0.581595
vt 0.875000 0.500000
vn 0.0000 -1.0000 0.0000
vn 0.0000 0.0000 -1.0000
vn -1.0000 -0.0000 0.0000
vn 0.0000 1.0000 0.0000
vn 1.0000 0.0000 0.0000
vn 0.0000 -0.0000 1.0000
usemtl Material
s off
f 1/1/1 5/2/1 7/3/1 3/4/1
f 4/5/2 9/6/2 10/7/2 8/8/2
f 8/9/3 10/10/3 12/11/3 6/12/3
f 6/13/4 2/14/4 4/5/4 8/15/4
f 2/14/5 11/16/5 9/6/5 4/5/5
f 6/12/6 12/11/6 11/16/6 2/14/6
f 13/17/1 14/18/1 10/19/1 9/6/1
f 15/20/1 13/17/1 9/6/1 11/16/1
f 14/18/1 16/21/1 12/22/1 10/19/1
f 16/21/1 15/20/1 11/16/1 12/22/1
f 3/4/2 7/3/2 14/18/2 13/17/2
f 1/1/5 3/4/5 13/17/5 15/20/5
f 7/3/3 5/2/3 16/21/3 14/18/3
f 5/2/6 1/1/6 15/20/6 16/21/6
